{"title":"The Voice - Australia S01 E13 - pKcMvA","uid":7328481,"size":860541954,"categoryP":"video","categoryS":"tv_shows","magnet":"?xt=urn:btih:e7163aa9fe3f44ec7cb798cc895767b5d521602a&amp;dn=The+Voice+-+Australia+S01+E13+-+pKcMvA&amp;tr=udp%3A%2F%2Ftracker.openbittorrent.com%3A80&amp;tr=udp%3A%2F%2Fopen.demonii.com%3A1337&amp;tr=udp%3A%2F%2Ftracker.coppersurfer.tk%3A6969&amp;tr=udp%3A%2F%2Fexodus.desync.com%3A6969","seeders":0,"leechers":1,"uploader":"PKCMVA","files":1,"time":1338835149,"description":"The Voice - Australia S01 E13 - pKcMvA\n\nLive Show Final, Part 4\n\nFormat                                   : AVI\nFormat/Info                              : Audio Video Interleave\nFile size                                : 821 MiB\nDuration                                 : 1h 27mn\nOverall bit rate                         : 1 316 Kbps\nWriting library                          : MPlayer\n\nVideo\n\nFormat                                   : MPEG-4 Visual\nFormat profile                           : Advanced Simple@L5\nFormat settings, BVOP                    : 2\nFormat settings, QPel                    : No\nFormat settings, GMC                     : No warppoints\nFormat settings, Matrix                  : Default (H.263)\nMuxing mode                              : Packed bitstream\nCodec ID                                 : XVID\nCodec ID/Hint                            : XviD\nDuration                                 : 1h 27mn\nBit rate                                 : 1 118 Kbps\nWidth                                    : 624 pixels\nHeight                                   : 352 pixels\nDisplay aspect ratio                     : 16:9\nFrame rate                               : 25.000 fps\nColor space                              : YUV\nChroma subsampling                       : 4:2:0\nBit depth                                : 8 bits\nScan type                                : Progressive\nBits/(Pixel*Frame)                       : 0.204\nStream size                              : 698 MiB (85%)\nWriting library                          : XviD 64\n\nAudio\n\nFormat                                   : MPEG Audio\nFormat version                           : Version 1\nFormat profile                           : Layer 3\nCodec ID                                 : 55\nCodec ID/Hint                            : MP3\nDuration                                 : 1h 27mn\nBit rate mode                            : Constant\nBit rate                                 : 192 Kbps\nChannel(s)                               : 2 channels\nSampling rate                            : 44.1 KHz\nStream size                              : 120 MiB (15%)\nAlignment                                : Split accross interleaves\nInterleave, duration                     : 500 ms (12.50 video frames)\nInterleave, preload duration             : 500 ms","torrent":{"xt":"urn:btih:e7163aa9fe3f44ec7cb798cc895767b5d521602a","amp;dn":"The+Voice+-+Australia+S01+E13+-+pKcMvA","amp;tr":["udp%3A%2F%2Ftracker.openbittorrent.com%3A80","udp%3A%2F%2Fopen.demonii.com%3A1337","udp%3A%2F%2Ftracker.coppersurfer.tk%3A6969","udp%3A%2F%2Fexodus.desync.com%3A6969"],"infoHash":"e7163aa9fe3f44ec7cb798cc895767b5d521602a","infoHashBuffer":{"type":"Buffer","data":[231,22,58,169,254,63,68,236,124,183,152,204,137,87,103,181,213,33,96,42]},"announce":[],"urlList":[]}}